<?xml version="1.0" encoding="UTF-8"?>
<svg id="Capa_1" data-name="Capa 1" xmlns="http://www.w3.org/2000/svg" viewBox="0 0 535.89 125.42">
  <defs>
    <style>
      .cls-1 {
        fill: #003dff;
      }
    </style>
  </defs>
  <path class="cls-1" d="M6.67,10.64c4.5-3.65,9.84-.65,12.36,3.93,6.91,12.59,3.11,29.73,4.73,43.2.33,3.41.93,6.91,2.42,9.9,3.95,8.25,13.95,8.32,21.84,10.18,4.74,1.14,8.91,2.57,12.41,4.97,8.72,6.53.14,11.69-8.86,13.72-5.41,1.25-12.32,1.41-19.18,1.39-9.17-.26-18.62.61-25.93-3.02C-.46,90.84.42,81.43.05,74.15-.03,62.98.01,47.69.02,35.5.17,27.06-.12,16.5,6.59,10.71l.08-.07Z"/>
  <path class="cls-1" d="M70.14,63.33c-.17-29.21,32.45-44.29,56.35-29.63,15.3,9.19,20.24,30.6,12.15,46.15-5.8,11.89-18.84,18.94-31.9,18.94-20.06.47-36.78-14.99-36.6-35.26v-.2ZM121.86,63.32c.25-10.37-10.82-19.38-20.76-15.23-13.34,5.23-13.66,24.88-.36,30.51,10.06,4.46,21.31-4.48,21.11-15.08v-.2Z"/>
  <path class="cls-1" d="M147.66,63.33c-.17-29.21,32.45-44.29,56.35-29.63,15.3,9.19,20.24,30.6,12.15,46.15-5.8,11.89-18.84,18.94-31.9,18.94-20.06.47-36.78-14.99-36.6-35.26v-.2ZM199.38,63.32c.25-10.37-10.82-19.38-20.76-15.23-13.34,5.23-13.66,24.88-.36,30.51,10.06,4.46,21.31-4.48,21.11-15.08v-.2Z"/>
  <path class="cls-1" d="M228.15,60.81c2.62-16.89,14.55-30.99,31.69-32.79,17.23-2.15,34.12,8.67,37.63,26.02,3.4,14.7-2.58,32.17-15.72,39.11-5.3,2.94-11.94,3.44-17.54,4.12-8.44.8-12.62,4.44-15.79,11.97-1.14,2.42-2.36,5.09-3.69,7.65-1.79,3.28-3.85,7.19-7.17,8.36-3.85,1.07-6.39-3.07-7.82-6.29-4.18-10.17-3.3-20.55-3.38-32.41.11-8.49.29-17.24,1.76-25.54l.04-.2ZM279.35,63.32c.25-10.37-10.82-19.38-20.76-15.23-13.34,5.23-13.66,24.88-.36,30.51,10.06,4.46,21.31-4.48,21.11-15.08v-.2Z"/>
  <path class="cls-1" d="M308.11,60.81c2.62-16.89,14.55-30.99,31.69-32.79,17.23-2.15,34.12,8.67,37.63,26.02,3.4,14.7-2.58,32.17-15.72,39.11-5.3,2.94-11.94,3.44-17.54,4.12-8.44.8-12.62,4.44-15.79,11.97-1.14,2.42-2.36,5.09-3.69,7.65-1.79,3.28-3.85,7.19-7.17,8.36-3.85,1.07-6.39-3.07-7.82-6.29-4.18-10.17-3.3-20.55-3.38-32.41.11-8.49.29-17.24,1.76-25.54l.04-.2ZM359.32,63.32c.25-10.37-10.82-19.38-20.76-15.23-13.34,5.23-13.66,24.88-.36,30.51,10.06,4.46,21.31-4.48,21.11-15.08v-.2Z"/>
  <path class="cls-1" d="M386.44,64.48c-1.41-31.66,33.38-48.22,57.36-29.06,8.42,6.97,12.23,17.52,13.83,28.18,2.39,13.5.61,34.05-16.7,33.48-9.25.11-18.68,1.61-28.24.68-15.68-1.52-25.99-18.06-26.25-33.07v-.21ZM436.83,63.32c.25-10.37-10.82-19.38-20.76-15.23-13.34,5.23-13.66,24.88-.36,30.51,10.06,4.46,21.31-4.48,21.11-15.08v-.2Z"/>
  <path class="cls-1" d="M475.92.81c8.6-5.51,14.23,18.88,19.95,23.62,6.37,6.4,16.55,4.62,23.9,9.75,16.04,9.17,22.24,50.08,8.67,60.06-10.04,4.15-13.12-26.12-16.76-32.09-4.68-10.31-12.52-9.76-16.9.17-3.75,8.56-4.99,20.86-9.8,28.75-5.88,10.01-11.68,4.6-13.82-4.12-2.55-9.97-1.31-26.01-1.6-38.82,0-5.64,0-11.54,0-17.05.14-9.72-.68-23.93,6.3-30.22l.07-.05Z"/>
</svg>