<?xml version="1.0" encoding="UTF-8"?>
<svg id="Capa_1" data-name="Capa 1" xmlns="http://www.w3.org/2000/svg" viewBox="0 0 72.08 97.67">
  <defs>
    <style>
      .cls-1 {
        fill: #003dff;
      }
    </style>
  </defs>
  <path class="cls-1" d="M1.82,33.06C4.45,16.17,16.37,2.08,33.51.27c17.23-2.15,34.12,8.67,37.63,26.02,3.4,14.7-2.58,32.17-15.72,39.11-5.3,2.94-11.94,3.44-17.54,4.12-8.44.8-12.62,4.44-15.79,11.97-1.14,2.42-2.36,5.09-3.69,7.65-1.79,3.28-3.85,7.19-7.17,8.36-3.85,1.07-6.39-3.07-7.82-6.29C-.77,81.03.1,70.65.03,58.8c.11-8.49.29-17.24,1.76-25.54l.04-.2ZM53.02,35.57c.25-10.37-10.82-19.38-20.76-15.23-13.34,5.23-13.66,24.88-.36,30.51,10.06,4.46,21.31-4.48,21.11-15.08v-.2Z"/>
</svg>