<svg width="69" height="31" viewBox="0 0 69 31" fill="none" xmlns="http://www.w3.org/2000/svg">
<path d="M67.7344 23.2422C68.2031 23.5547 68.4375 24.1016 68.4375 24.8828C68.4375 25.651 68.3333 26.3281 68.125 26.9141C67.9167 27.5 67.5521 28.0469 67.0312 28.5547C65.8594 29.7005 64.0755 30.2734 61.6797 30.2734C58.8932 30.2734 56.7708 29.2448 55.3125 27.1875C54.0234 25.3516 53.3789 22.8711 53.3789 19.7461C53.3789 16.5951 54.2513 14.1211 55.9961 12.3242C57.6497 10.6185 59.8893 9.76562 62.7148 9.76562C64.681 9.76562 66.2174 10.3385 67.3242 11.4844C68.1966 12.3958 68.6328 13.4505 68.6328 14.6484C68.6328 15.8333 68.3984 16.9076 67.9297 17.8711C67.474 18.8216 66.7969 19.6419 65.8984 20.332C64.0495 21.7643 61.4648 22.5195 58.1445 22.5977C58.418 25.2148 59.2383 26.9661 60.6055 27.8516C61.1003 28.1641 61.7578 28.3203 62.5781 28.3203C63.3984 28.3203 64.2708 27.8906 65.1953 27.0312C66.1198 26.1719 66.9661 24.9089 67.7344 23.2422ZM58.0273 20.7422C62.1419 20.4688 64.1992 18.4766 64.1992 14.7656C64.1992 13.3724 63.7826 12.4349 62.9492 11.9531C62.6628 11.7969 62.2852 11.7188 61.8164 11.7188C61.3477 11.7188 60.8724 11.862 60.3906 12.1484C59.9219 12.4349 59.5117 12.9036 59.1602 13.5547C58.4049 14.974 58.0273 17.168 58.0273 20.1367V20.7422Z" fill="#999999"/>
<path d="M45.3516 2.34375C45.0781 3.34635 44.9414 4.55078 44.9414 5.95703C44.9414 7.35026 44.9674 8.24219 45.0195 8.63281C45.0846 9.02344 45.1823 9.33594 45.3125 9.57031C45.5599 9.96094 46.0417 10.1562 46.7578 10.1562H51.9922C51.9922 10.8854 51.8164 11.4453 51.4648 11.8359C50.8268 12.5391 50.0456 12.8906 49.1211 12.8906C48.6654 12.8906 48.2617 12.8255 47.9102 12.6953C47.2721 12.4349 46.7773 12.3047 46.4258 12.3047C46.0742 12.3047 45.7878 12.3763 45.5664 12.5195C45.3451 12.6497 45.1693 12.8451 45.0391 13.1055C44.8047 13.5742 44.6875 14.5964 44.6875 16.1719C44.6875 17.7474 44.7331 19.362 44.8242 21.0156C44.9284 22.6693 45.1758 24.056 45.5664 25.1758C45.957 26.2826 46.5495 27.1159 47.3438 27.6758C48.138 28.2357 49.2318 28.5156 50.625 28.5156C50.625 28.9193 50.3516 29.401 49.8047 29.9609C49.6615 30.1172 49.5378 30.2214 49.4336 30.2734C47.1289 30.2734 45.4036 30 44.2578 29.4531C42.9427 28.8021 42.0052 27.6432 41.4453 25.9766C40.8854 24.2839 40.6055 21.7773 40.6055 18.457C40.6055 15.5534 40.5273 13.8411 40.3711 13.3203C40.2148 12.7865 40.0716 12.4349 39.9414 12.2656C39.7852 12.0703 39.4076 11.8294 38.8086 11.543C39.6159 10.931 40.4167 9.79167 41.2109 8.125L42.1875 6.07422C42.8776 4.51172 43.4635 3.5026 43.9453 3.04688C44.4401 2.57812 44.9089 2.34375 45.3516 2.34375Z" fill="#999999"/>
<path d="M24.0234 29.8828C24.6224 27.8255 24.9219 24.2904 24.9219 19.2773C24.9219 15.7096 24.6354 13.2747 24.0625 11.9727C23.8281 11.4388 23.4115 10.8333 22.8125 10.1562H29.7461C29.5117 10.9766 29.3229 12.1029 29.1797 13.5352C30.4036 11.9987 32.1094 10.9115 34.2969 10.2734C35.2344 10 35.918 9.57031 36.3477 8.98438C36.7773 10.013 36.9922 10.8984 36.9922 11.6406C36.9922 12.3828 36.9531 13.0729 36.875 13.7109C36.7969 14.3359 36.6797 14.9479 36.5234 15.5469C36.1849 16.8359 35.7357 17.8385 35.1758 18.5547C34.694 16.0156 33.9453 14.5312 32.9297 14.1016C31.7578 13.5938 30.612 14.2839 29.4922 16.1719C29.2578 16.5625 29.0625 16.9792 28.9062 17.4219C28.8932 17.7214 28.8867 18.0273 28.8867 18.3398C28.8867 18.6523 28.8867 18.9648 28.8867 19.2773C28.8867 24.2904 29.1862 27.8255 29.7852 29.8828H24.0234Z" fill="#999999"/>
<path d="M14.5898 29.8828C14.7591 29.0625 14.8438 28.4115 14.8438 27.9297C14.8438 27.4349 14.8307 27.0638 14.8047 26.8164C14.7917 26.569 14.7656 26.3086 14.7266 26.0352C14.7005 25.7487 14.6615 25.4362 14.6094 25.0977C14.5703 24.7461 14.5312 24.3424 14.4922 23.8867C14.1927 20.7747 13.1315 18.2161 11.3086 16.2109C10.5013 15.3255 9.62891 14.6549 8.69141 14.1992C7.75391 13.7305 6.97917 13.4961 6.36719 13.4961C5.76823 13.4961 5.30599 13.5352 4.98047 13.6133C4.2513 15.8008 3.88672 18.0859 3.88672 20.4688C3.88672 22.5781 3.9974 24.1536 4.21875 25.1953C4.57031 26.7578 5.11068 28.3268 5.83984 29.9023H0C0.3125 29.1211 0.46875 27.4805 0.46875 24.9805C0.46875 22.4674 0.657552 20.1237 1.03516 17.9492C1.41276 15.7617 1.90104 13.8151 2.5 12.1094C3.11198 10.4036 3.78906 8.91276 4.53125 7.63672C5.28646 6.34766 6.03516 5.22786 6.77734 4.27734C7.53255 3.3138 8.24219 2.49349 8.90625 1.81641C9.57031 1.1263 10.1237 0.520833 10.5664 0H16.7188C16.1589 0.638021 15.8789 1.52995 15.8789 2.67578C15.8789 3.19661 15.9635 4.04948 16.1328 5.23438L16.6211 8.78906C18.4049 21.0807 20 28.112 21.4062 29.8828H14.5898ZM5.78125 11.543C6.28906 11.3477 6.82292 11.25 7.38281 11.25C7.94271 11.25 8.44401 11.2891 8.88672 11.3672C9.34245 11.4453 9.79167 11.5755 10.2344 11.7578C11.1849 12.1224 11.9792 12.7018 12.6172 13.4961C11.9792 10.1497 11.5885 8.10547 11.4453 7.36328L10.7617 3.94531L9.64844 5.27344C8.08594 7.14844 6.79688 9.23828 5.78125 11.543Z" fill="#999999"/>
</svg>
