<svg width="150" height="29" viewBox="0 0 150 29" fill="none" xmlns="http://www.w3.org/2000/svg">
<path d="M149.164 18.72V28.4H143.644V25.32H143.564C143.084 26.4133 142.297 27.2933 141.204 27.96C140.137 28.6 138.884 28.92 137.444 28.92C136.351 28.92 135.257 28.72 134.164 28.32C133.097 27.8933 132.084 27.28 131.124 26.48C130.191 25.68 129.431 24.5867 128.844 23.2C128.257 21.8133 127.964 20.2533 127.964 18.52C127.964 15.5067 128.951 13.0267 130.924 11.08C132.924 9.10667 135.484 8.12 138.604 8.12C141.751 8.12 144.297 9.08 146.244 11C148.191 12.92 149.164 15.4933 149.164 18.72ZM135.284 22C136.137 22.88 137.244 23.32 138.604 23.32C139.964 23.32 141.057 22.88 141.884 22C142.737 21.0933 143.164 19.9333 143.164 18.52C143.164 17.1067 142.737 15.96 141.884 15.08C141.057 14.1733 139.964 13.72 138.604 13.72C137.244 13.72 136.137 14.1733 135.284 15.08C134.457 15.96 134.044 17.1067 134.044 18.52C134.044 19.9333 134.457 21.0933 135.284 22Z" fill="#999999"/>
<path d="M125.938 17.32H119.938V17.16C119.938 14.8667 118.978 13.72 117.058 13.72C115.138 13.72 114.178 14.8667 114.178 17.16V28.4H108.178V17.16C108.178 14.1733 108.965 11.92 110.538 10.4C112.138 8.88 114.311 8.12 117.058 8.12C119.805 8.12 121.965 8.89333 123.538 10.44C125.138 11.96 125.938 14.2533 125.938 17.32Z" fill="#999999"/>
<path d="M98.2606 18.88V8.64H104.261V18.88C104.261 22.1333 103.381 24.6267 101.621 26.36C99.8606 28.0667 97.4873 28.92 94.5006 28.92C91.4873 28.92 89.1006 28.0667 87.3406 26.36C85.6073 24.6267 84.7406 22.1333 84.7406 18.88V8.64H90.7406V18.88C90.7406 21.84 91.994 23.32 94.5006 23.32C97.0073 23.32 98.2606 21.84 98.2606 18.88Z" fill="#999999"/>
<path d="M81.8475 20V20.6C81.8475 23.3467 81.1008 25.4267 79.6075 26.84C78.1408 28.2267 76.1275 28.92 73.5675 28.92C71.0075 28.92 68.9808 28.2267 67.4875 26.84C66.0208 25.4267 65.2875 23.3467 65.2875 20.6V2.28H71.2875V8.64H80.6475V14.04H71.2875V20.6C71.2875 22.4133 72.0475 23.32 73.5675 23.32C75.0875 23.32 75.8475 22.4133 75.8475 20.6V20H81.8475Z" fill="#999999"/>
<path d="M60.7166 28.4H54.7166V0H60.7166V28.4Z" fill="#999999"/>
<path d="M44.1591 18.88V8.64H50.1591V18.88C50.1591 22.1333 49.2791 24.6267 47.5191 26.36C45.7591 28.0667 43.3857 28.92 40.3991 28.92C37.3857 28.92 34.9991 28.0667 33.2391 26.36C31.5057 24.6267 30.6391 22.1333 30.6391 18.88V8.64H36.6391V18.88C36.6391 21.84 37.8924 23.32 40.3991 23.32C42.9057 23.32 44.1591 21.84 44.1591 18.88Z" fill="#999999"/>
<path d="M27.52 12.16H20.68C20.1467 10.8 19.28 9.72 18.08 8.92C16.9067 8.12 15.52 7.72 13.92 7.72C11.7333 7.72 9.96 8.44 8.6 9.88C7.24 11.2933 6.56 13.1067 6.56 15.32C6.56 17.5333 7.24 19.36 8.6 20.8C9.96 22.2133 11.7333 22.92 13.92 22.92C15.52 22.92 16.9067 22.52 18.08 21.72C19.28 20.92 20.1467 19.84 20.68 18.48H27.52C26.8533 21.6 25.28 24.12 22.8 26.04C20.3467 27.96 17.3867 28.92 13.92 28.92C9.86667 28.92 6.53333 27.64 3.92 25.08C1.30667 22.52 0 19.2667 0 15.32C0 11.3733 1.30667 8.12 3.92 5.56C6.53333 3 9.86667 1.72 13.92 1.72C17.3867 1.72 20.3467 2.68 22.8 4.6C25.28 6.52 26.8533 9.04 27.52 12.16Z" fill="#999999"/>
</svg>
