<svg width="288" height="40" viewBox="0 0 288 40" fill="none" xmlns="http://www.w3.org/2000/svg">
<path d="M277.851 29.8C275.931 29.8 274.238 29.3733 272.771 28.52C271.331 27.6667 270.211 26.5067 269.411 25.04C268.611 23.5733 268.211 21.9467 268.211 20.16C268.211 18.4 268.598 16.8 269.371 15.36C270.171 13.8933 271.291 12.7333 272.731 11.88C274.171 11 275.878 10.56 277.851 10.56C279.825 10.56 281.531 11 282.971 11.88C284.411 12.7333 285.518 13.8933 286.291 15.36C287.065 16.8 287.451 18.4 287.451 20.16C287.451 21.9467 287.051 23.5733 286.251 25.04C285.478 26.5067 284.371 27.6667 282.931 28.52C281.491 29.3733 279.798 29.8 277.851 29.8ZM277.971 26.28C279.571 26.28 280.798 25.6933 281.651 24.52C282.531 23.3467 282.971 21.92 282.971 20.24C282.971 19.0933 282.758 18.0667 282.331 17.16C281.905 16.2267 281.291 15.48 280.491 14.92C279.718 14.36 278.798 14.08 277.731 14.08C276.691 14.08 275.798 14.36 275.051 14.92C274.305 15.48 273.718 16.2267 273.291 17.16C272.891 18.0667 272.691 19.0933 272.691 20.24C272.691 21.36 272.918 22.3867 273.371 23.32C273.825 24.2267 274.438 24.9467 275.211 25.48C276.011 26.0133 276.931 26.28 277.971 26.28Z" fill="#999999"/>
<path d="M257.649 29.4V14.56H254.409V11.04H257.649V3.56L262.009 2.6V11.04H266.249V14.56H262.009V29.4H257.649Z" fill="#999999"/>
<path d="M233.822 29.4V11.04H238.062L238.102 14.4C238.582 13.3067 239.356 12.4 240.422 11.68C241.516 10.9333 242.822 10.56 244.342 10.56C246.316 10.56 247.796 10.9733 248.782 11.8C249.769 12.6 250.422 13.7467 250.742 15.24C251.089 16.7333 251.262 18.5067 251.262 20.56V29.4H246.942V20.68C246.942 18.5467 246.729 16.92 246.302 15.8C245.902 14.68 244.956 14.12 243.462 14.12C242.689 14.12 241.889 14.36 241.062 14.84C240.236 15.32 239.542 16.0133 238.982 16.92C238.422 17.8267 238.142 18.9467 238.142 20.28V29.4H233.822Z" fill="#999999"/>
<path d="M221.604 29.8C219.311 29.8 217.444 29.36 216.004 28.48C214.564 27.5733 213.511 26.3867 212.844 24.92C212.177 23.4533 211.844 21.8933 211.844 20.24C211.844 18.24 212.244 16.52 213.044 15.08C213.871 13.64 215.004 12.5333 216.444 11.76C217.884 10.96 219.511 10.56 221.324 10.56C224.231 10.56 226.351 11.3733 227.684 13C229.017 14.6 229.684 16.76 229.684 19.48C229.684 20.2 229.644 20.9467 229.564 21.72H216.364C216.657 23.3733 217.244 24.56 218.124 25.28C219.031 25.9733 220.231 26.32 221.724 26.32C223.164 26.32 224.297 26.1867 225.124 25.92C225.951 25.6533 226.631 25.3867 227.164 25.12L228.484 28.2C227.951 28.5467 227.124 28.9067 226.004 29.28C224.884 29.6267 223.417 29.8 221.604 29.8ZM216.364 18.72H225.484C225.511 16.9867 225.124 15.8 224.324 15.16C223.524 14.52 222.484 14.2 221.204 14.2C219.871 14.2 218.777 14.56 217.924 15.28C217.097 15.9733 216.577 17.12 216.364 18.72Z" fill="#999999"/>
<path d="M203.01 29.4V11.04H207.49V29.4H203.01ZM205.25 7.6C204.423 7.6 203.73 7.32 203.17 6.76C202.636 6.2 202.37 5.50667 202.37 4.68C202.37 3.93333 202.636 3.29333 203.17 2.76C203.73 2.22667 204.423 1.96 205.25 1.96C206.076 1.96 206.756 2.22667 207.29 2.76C207.85 3.29333 208.13 3.93333 208.13 4.68C208.13 5.50667 207.85 6.2 207.29 6.76C206.756 7.32 206.076 7.6 205.25 7.6Z" fill="#999999"/>
<path d="M167.924 29.4V11.04H172.244V14.36C172.857 13.0533 173.737 12.0933 174.884 11.48C176.031 10.8667 177.311 10.56 178.724 10.56C180.537 10.5867 181.911 10.9067 182.844 11.52C183.777 12.1333 184.417 12.9467 184.764 13.96C185.351 12.92 186.231 12.0933 187.404 11.48C188.577 10.8667 189.817 10.56 191.124 10.56C193.124 10.56 194.604 10.9467 195.564 11.72C196.551 12.4667 197.191 13.56 197.484 15C197.804 16.4133 197.964 18.1467 197.964 20.2V29.4H193.604V20.16C193.604 18.1067 193.391 16.5867 192.964 15.6C192.564 14.6133 191.711 14.12 190.404 14.12C188.644 14.12 187.351 14.7067 186.524 15.88C185.697 17.0533 185.284 18.52 185.284 20.28V29.4H180.964V19.52C180.964 18.3733 180.911 17.4 180.804 16.6C180.724 15.8 180.444 15.1867 179.964 14.76C179.511 14.3333 178.724 14.12 177.604 14.12C176.671 14.12 175.791 14.4 174.964 14.96C174.164 15.52 173.511 16.2667 173.004 17.2C172.524 18.1067 172.284 19.1333 172.284 20.28V29.4H167.924Z" fill="#999999"/>
<path d="M158.322 29.4V11.04H162.802V29.4H158.322ZM160.562 7.6C159.736 7.6 159.042 7.32 158.482 6.76C157.949 6.2 157.682 5.50667 157.682 4.68C157.682 3.93333 157.949 3.29333 158.482 2.76C159.042 2.22667 159.736 1.96 160.562 1.96C161.389 1.96 162.069 2.22667 162.602 2.76C163.162 3.29333 163.442 3.93333 163.442 4.68C163.442 5.50667 163.162 6.2 162.602 6.76C162.069 7.32 161.389 7.6 160.562 7.6Z" fill="#999999"/>
<path d="M142.06 29.8C140.433 29.8 138.913 29.4133 137.5 28.64C136.113 27.8667 134.993 26.76 134.14 25.32C133.286 23.88 132.86 22.16 132.86 20.16C132.86 18.2133 133.22 16.5333 133.94 15.12C134.686 13.68 135.726 12.56 137.06 11.76C138.42 10.96 140.033 10.56 141.9 10.56C142.966 10.56 143.966 10.7467 144.9 11.12C145.833 11.4667 146.633 11.9333 147.3 12.52C147.966 13.1067 148.446 13.7467 148.74 14.44L148.54 11.32V0H152.78V29.4H148.66L148.58 26.16C148.313 26.7467 147.86 27.32 147.22 27.88C146.606 28.44 145.86 28.9067 144.98 29.28C144.1 29.6267 143.126 29.8 142.06 29.8ZM142.78 26.16C143.766 26.16 144.66 25.9333 145.46 25.48C146.286 25 146.94 24.3333 147.42 23.48C147.926 22.6267 148.18 21.6133 148.18 20.44V20.16C148.18 18.96 147.926 17.92 147.42 17.04C146.94 16.1333 146.286 15.44 145.46 14.96C144.66 14.4533 143.766 14.2 142.78 14.2C140.993 14.2 139.646 14.7733 138.74 15.92C137.86 17.0667 137.42 18.48 137.42 20.16C137.42 21.8667 137.86 23.2933 138.74 24.44C139.646 25.5867 140.993 26.16 142.78 26.16Z" fill="#999999"/>
<path d="M111.322 29.4V11.04H115.562L115.602 14.4C116.082 13.3067 116.856 12.4 117.922 11.68C119.016 10.9333 120.322 10.56 121.842 10.56C123.816 10.56 125.296 10.9733 126.282 11.8C127.269 12.6 127.922 13.7467 128.242 15.24C128.589 16.7333 128.762 18.5067 128.762 20.56V29.4H124.442V20.68C124.442 18.5467 124.229 16.92 123.802 15.8C123.402 14.68 122.456 14.12 120.962 14.12C120.189 14.12 119.389 14.36 118.562 14.84C117.736 15.32 117.042 16.0133 116.482 16.92C115.922 17.8267 115.642 18.9467 115.642 20.28V29.4H111.322Z" fill="#999999"/>
<path d="M99.1041 29.8C96.8107 29.8 94.9441 29.36 93.5041 28.48C92.0641 27.5733 91.0107 26.3867 90.3441 24.92C89.6774 23.4533 89.3441 21.8933 89.3441 20.24C89.3441 18.24 89.7441 16.52 90.5441 15.08C91.3707 13.64 92.5041 12.5333 93.9441 11.76C95.3841 10.96 97.0107 10.56 98.8241 10.56C101.731 10.56 103.851 11.3733 105.184 13C106.517 14.6 107.184 16.76 107.184 19.48C107.184 20.2 107.144 20.9467 107.064 21.72H93.8641C94.1574 23.3733 94.7441 24.56 95.6241 25.28C96.5307 25.9733 97.7307 26.32 99.2241 26.32C100.664 26.32 101.797 26.1867 102.624 25.92C103.451 25.6533 104.131 25.3867 104.664 25.12L105.984 28.2C105.451 28.5467 104.624 28.9067 103.504 29.28C102.384 29.6267 100.917 29.8 99.1041 29.8ZM93.8641 18.72H102.984C103.011 16.9867 102.624 15.8 101.824 15.16C101.024 14.52 99.9841 14.2 98.7041 14.2C97.3707 14.2 96.2774 14.56 95.4241 15.28C94.5974 15.9733 94.0774 17.12 93.8641 18.72Z" fill="#999999"/>
<path d="M76.6712 29.4V11.04H80.9912V14.64C81.4179 13.44 82.0979 12.4667 83.0312 11.72C83.9912 10.9467 85.0979 10.56 86.3512 10.56C87.2045 10.56 87.7912 10.64 88.1112 10.8L87.5112 15.16C87.2712 15 86.7512 14.92 85.9512 14.92C85.2845 14.92 84.5645 15.0667 83.7912 15.36C83.0179 15.6533 82.3512 16.1733 81.7912 16.92C81.2579 17.64 80.9912 18.6533 80.9912 19.96V29.4H76.6712Z" fill="#999999"/>
<path d="M52.7306 39.12V11.04H56.8906V14.44C57.5039 13.3467 58.3573 12.4267 59.4506 11.68C60.5706 10.9333 62.0106 10.56 63.7706 10.56C65.4239 10.56 66.9039 10.9067 68.2106 11.6C69.5173 12.2933 70.5439 13.3467 71.2906 14.76C72.0639 16.1733 72.4506 17.96 72.4506 20.12C72.4506 22.0933 72.0506 23.8133 71.2506 25.28C70.4506 26.72 69.3839 27.84 68.0506 28.64C66.7173 29.4133 65.2239 29.8 63.5706 29.8C61.9973 29.8 60.6506 29.52 59.5306 28.96C58.4106 28.4 57.5306 27.6267 56.8906 26.64V39.12H52.7306ZM62.5706 26.16C64.3839 26.16 65.7306 25.5867 66.6106 24.44C67.5173 23.2933 67.9706 21.8933 67.9706 20.24C67.9706 18.5067 67.5173 17.08 66.6106 15.96C65.7306 14.84 64.3839 14.28 62.5706 14.28C61.6106 14.28 60.7173 14.5067 59.8906 14.96C59.0639 15.4133 58.3973 16.0667 57.8906 16.92C57.3839 17.7733 57.1306 18.8 57.1306 20V20.28C57.1306 21.4533 57.3839 22.4933 57.8906 23.4C58.3973 24.28 59.0639 24.96 59.8906 25.44C60.7173 25.92 61.6106 26.16 62.5706 26.16Z" fill="#999999"/>
<path d="M17.6506 29.4V11.04H21.9706V14.36C22.584 13.0533 23.464 12.0933 24.6106 11.48C25.7573 10.8667 27.0373 10.56 28.4506 10.56C30.264 10.5867 31.6373 10.9067 32.5706 11.52C33.504 12.1333 34.144 12.9467 34.4906 13.96C35.0773 12.92 35.9573 12.0933 37.1306 11.48C38.304 10.8667 39.544 10.56 40.8506 10.56C42.8506 10.56 44.3306 10.9467 45.2906 11.72C46.2773 12.4667 46.9173 13.56 47.2106 15C47.5306 16.4133 47.6906 18.1467 47.6906 20.2V29.4H43.3306V20.16C43.3306 18.1067 43.1173 16.5867 42.6906 15.6C42.2906 14.6133 41.4373 14.12 40.1306 14.12C38.3706 14.12 37.0773 14.7067 36.2506 15.88C35.424 17.0533 35.0106 18.52 35.0106 20.28V29.4H30.6906V19.52C30.6906 18.3733 30.6373 17.4 30.5306 16.6C30.4506 15.8 30.1706 15.1867 29.6906 14.76C29.2373 14.3333 28.4506 14.12 27.3306 14.12C26.3973 14.12 25.5173 14.4 24.6906 14.96C23.8906 15.52 23.2373 16.2667 22.7306 17.2C22.2506 18.1067 22.0106 19.1333 22.0106 20.28V29.4H17.6506Z" fill="#999999"/>
<path d="M0 29.4V0H12.88V3.92H4.44V12.04H11.24V16.04H4.44V25.44H14.2V29.4H0Z" fill="#999999"/>
</svg>
