<svg width="184" height="47" viewBox="0 0 184 47" fill="none" xmlns="http://www.w3.org/2000/svg">
<path d="M180.977 0C181.341 0.0520833 181.654 0.15625 181.914 0.3125C182.201 0.442708 182.422 0.690104 182.578 1.05469C182.578 1.54948 182.591 2.23958 182.617 3.125C182.669 3.98438 182.708 4.98698 182.734 6.13281C182.786 7.27865 182.839 8.51562 182.891 9.84375C182.943 11.1719 182.995 12.513 183.047 13.8672C183.099 15.2214 183.138 16.5625 183.164 17.8906C183.216 19.2188 183.255 20.4557 183.281 21.6016C183.333 22.7474 183.372 23.763 183.398 24.6484C183.424 25.5339 183.451 26.2109 183.477 26.6797C183.477 26.7318 183.464 26.8229 183.438 26.9531C183.438 27.0833 183.424 27.2396 183.398 27.4219C183.398 27.6042 183.385 27.7865 183.359 27.9688C183.359 28.125 183.359 28.2422 183.359 28.3203C183.333 28.4766 183.32 28.6719 183.32 28.9062C183.32 29.1146 183.294 29.3229 183.242 29.5312C183.19 29.7396 183.099 29.9349 182.969 30.1172C182.865 30.2734 182.682 30.3646 182.422 30.3906L181.758 29.5703C181.732 29.5443 181.693 29.0625 181.641 28.125C181.615 27.1615 181.563 25.9245 181.484 24.4141C181.432 22.8776 181.38 21.1589 181.328 19.2578C181.276 17.3307 181.211 15.3906 181.133 13.4375C181.081 11.4844 181.029 9.60938 180.977 7.8125C180.924 6.01562 180.885 4.46615 180.859 3.16406C180.859 3.0599 180.859 2.85156 180.859 2.53906C180.885 2.22656 180.898 1.91406 180.898 1.60156C180.924 1.26302 180.938 0.950521 180.938 0.664062C180.964 0.351562 180.977 0.130208 180.977 0Z" fill="#999999"/>
<path d="M166.484 26.9922C166.484 25.5078 166.888 24.4271 167.695 23.75C168.529 23.0729 169.609 22.7344 170.938 22.7344C171.458 22.7344 171.94 22.7474 172.383 22.7734C172.852 22.7995 173.294 22.8646 173.711 22.9688C174.128 23.0729 174.531 23.2292 174.922 23.4375C175.339 23.6458 175.768 23.9453 176.211 24.3359C176.211 24.2578 176.211 24.1016 176.211 23.8672C176.237 23.6068 176.25 23.3333 176.25 23.0469C176.25 22.7604 176.25 22.5 176.25 22.2656C176.25 22.0052 176.25 21.8229 176.25 21.7188C176.224 21.25 176.211 20.651 176.211 19.9219C176.211 19.1667 176.146 18.3984 176.016 17.6172C175.911 16.8359 175.677 16.0938 175.313 15.3906C174.974 14.6875 174.414 14.1536 173.633 13.7891C173.086 13.7891 172.578 13.8802 172.109 14.0625C171.641 14.2448 171.172 14.4401 170.703 14.6484C170.234 14.8568 169.766 15.0521 169.297 15.2344C168.828 15.3906 168.32 15.4688 167.773 15.4688C167.773 14.8177 167.969 14.2839 168.359 13.8672C168.776 13.4245 169.271 13.0859 169.844 12.8516C170.417 12.6172 171.016 12.4609 171.641 12.3828C172.266 12.3047 172.813 12.2656 173.281 12.2656C173.75 12.3438 174.18 12.4349 174.57 12.5391C174.987 12.6432 175.365 12.8516 175.703 13.1641C176.068 13.4766 176.393 13.9583 176.68 14.6094C176.992 15.2344 177.253 16.1198 177.461 17.2656C177.695 18.4115 177.891 19.8698 178.047 21.6406C178.229 23.3854 178.372 25.5339 178.477 28.0859C178.529 28.4245 178.411 28.724 178.125 28.9844C177.865 29.2188 177.5 29.4271 177.031 29.6094C176.563 29.7656 176.029 29.9089 175.43 30.0391C174.857 30.1432 174.271 30.2214 173.672 30.2734C173.073 30.3255 172.5 30.3646 171.953 30.3906C171.406 30.4167 170.951 30.4297 170.586 30.4297C170.117 30.4297 169.635 30.3516 169.141 30.1953C168.672 30.0391 168.229 29.8177 167.813 29.5312C167.422 29.2188 167.096 28.8542 166.836 28.4375C166.602 27.9948 166.484 27.513 166.484 26.9922ZM171.563 24.2578C170.26 24.6224 169.349 25.0651 168.828 25.5859C168.307 26.0807 168.073 26.5625 168.125 27.0312C168.203 27.5 168.516 27.9297 169.063 28.3203C169.609 28.6849 170.273 28.9323 171.055 29.0625C171.836 29.1667 172.682 29.1016 173.594 28.8672C174.505 28.6068 175.378 28.112 176.211 27.3828C175.898 26.6276 175.586 26.0547 175.273 25.6641C174.961 25.2474 174.622 24.9349 174.258 24.7266C173.893 24.5182 173.49 24.388 173.047 24.3359C172.604 24.2839 172.109 24.2578 171.563 24.2578Z" fill="#999999"/>
<path d="M162.695 15.1953C163.008 15.1953 163.268 15.1823 163.477 15.1562C163.711 15.1302 163.906 15.2604 164.063 15.5469C164.141 16.7188 164.232 17.9167 164.336 19.1406C164.44 20.3385 164.544 21.5495 164.648 22.7734C164.753 23.9974 164.818 25.2344 164.844 26.4844C164.896 27.7083 164.909 28.9062 164.883 30.0781C164.883 30.2344 164.844 30.3255 164.766 30.3516C164.688 30.4036 164.57 30.4167 164.414 30.3906C164.284 30.3906 164.115 30.3776 163.906 30.3516C163.724 30.3516 163.516 30.3776 163.281 30.4297L162.695 15.1953ZM160.43 8.20312C160.43 8.02083 160.443 7.82552 160.469 7.61719C160.495 7.38281 160.547 7.17448 160.625 6.99219C160.729 6.8099 160.846 6.65365 160.977 6.52344C161.133 6.39323 161.315 6.32812 161.523 6.32812C161.836 6.32812 162.148 6.34115 162.461 6.36719C162.773 6.39323 163.073 6.45833 163.359 6.5625C163.646 6.64062 163.88 6.78385 164.063 6.99219C164.245 7.17448 164.336 7.44792 164.336 7.8125C164.336 8.4375 164.102 8.9974 163.633 9.49219C163.164 9.96094 162.591 10.1953 161.914 10.1953C161.393 10.1953 161.016 10 160.781 9.60938C160.547 9.19271 160.43 8.72396 160.43 8.20312ZM162.695 8.39844C162.617 8.39844 162.578 8.46354 162.578 8.59375C162.578 8.72396 162.617 8.78906 162.695 8.78906C162.799 8.78906 162.852 8.72396 162.852 8.59375C162.852 8.46354 162.799 8.39844 162.695 8.39844Z" fill="#999999"/>
<path d="M146.172 23.6719C146.172 22.7083 146.328 21.6406 146.641 20.4688C146.953 19.2969 147.409 18.2161 148.008 17.2266C148.607 16.2109 149.349 15.3646 150.234 14.6875C151.12 14.0104 152.148 13.6719 153.32 13.6719C153.919 13.5938 154.401 13.6589 154.766 13.8672C155.13 14.0495 155.404 14.349 155.586 14.7656C155.794 15.1823 155.924 15.6641 155.977 16.2109C156.055 16.7318 156.094 17.2786 156.094 17.8516C156.12 18.3984 156.12 18.9193 156.094 19.4141C156.094 19.8828 156.12 20.2734 156.172 20.5859H155.195C155.169 20.4297 155.117 20.0651 155.039 19.4922C154.987 18.8932 154.883 18.2813 154.727 17.6563C154.57 17.0313 154.349 16.4714 154.063 15.9766C153.802 15.4818 153.424 15.2344 152.93 15.2344C152.201 15.2344 151.51 15.5208 150.859 16.0938C150.234 16.6667 149.688 17.3568 149.219 18.1641C148.75 18.9714 148.372 19.8047 148.086 20.6641C147.799 21.5234 147.656 22.2396 147.656 22.8125C147.682 23.4635 147.773 24.1797 147.93 24.9609C148.086 25.7161 148.333 26.4063 148.672 27.0313C149.036 27.6563 149.505 28.1641 150.078 28.5547C150.651 28.9453 151.354 29.0625 152.188 28.9063C152.813 28.9063 153.411 28.776 153.984 28.5156C154.557 28.2552 155.117 27.9818 155.664 27.6953C156.211 27.4089 156.758 27.1354 157.305 26.875C157.878 26.6146 158.477 26.4844 159.102 26.4844C159.102 27.1615 158.854 27.7604 158.359 28.2813C157.865 28.776 157.253 29.1797 156.523 29.4922C155.82 29.8047 155.065 30.0391 154.258 30.1953C153.477 30.3516 152.813 30.4297 152.266 30.4297C151.38 30.4297 150.56 30.2474 149.805 29.8828C149.076 29.5182 148.438 29.0365 147.891 28.4375C147.344 27.8125 146.914 27.0964 146.602 26.2891C146.315 25.4557 146.172 24.5833 146.172 23.6719Z" fill="#999999"/>
<path d="M131.875 23.2031C131.875 22.6042 131.927 21.9141 132.031 21.1328C132.135 20.3255 132.305 19.5182 132.539 18.7109C132.773 17.9036 133.06 17.1094 133.398 16.3281C133.763 15.5469 134.193 14.8568 134.688 14.2578C135.182 13.6328 135.755 13.138 136.406 12.7734C137.057 12.3828 137.786 12.1875 138.594 12.1875C139.427 12.1875 140.195 12.474 140.898 13.0469C141.628 13.6198 142.24 14.362 142.734 15.2734C143.255 16.1849 143.646 17.2005 143.906 18.3203C144.167 19.4401 144.271 20.5339 144.219 21.6016C144.219 23.1641 143.919 24.5573 143.32 25.7812C142.721 27.0052 141.953 27.9948 141.016 28.75C140.104 29.5052 139.115 30.013 138.047 30.2734C137.005 30.5339 136.016 30.4688 135.078 30.0781C134.167 29.6615 133.398 28.8932 132.773 27.7734C132.174 26.6536 131.875 25.1302 131.875 23.2031ZM133.32 23.3594C133.398 24.9479 133.672 26.1719 134.141 27.0312C134.609 27.8906 135.169 28.4635 135.82 28.75C136.497 29.0104 137.227 29.0104 138.008 28.75C138.789 28.4896 139.518 28.0339 140.195 27.3828C140.872 26.7057 141.445 25.8724 141.914 24.8828C142.409 23.8672 142.682 22.7344 142.734 21.4844C142.786 20.5469 142.708 19.6354 142.5 18.75C142.318 17.8646 142.044 17.0833 141.68 16.4062C141.341 15.7031 140.911 15.1562 140.391 14.7656C139.896 14.349 139.323 14.1406 138.672 14.1406C138.047 14.1406 137.487 14.2969 136.992 14.6094C136.497 14.9219 136.042 15.3516 135.625 15.8984C135.234 16.4193 134.896 17.0182 134.609 17.6953C134.323 18.3724 134.076 19.0495 133.867 19.7266C133.685 20.4036 133.542 21.0677 133.438 21.7188C133.359 22.3438 133.32 22.8906 133.32 23.3594Z" fill="#999999"/>
<path d="M118.359 27.1875C118.828 27.1875 119.258 27.2786 119.648 27.4609C120.065 27.6432 120.469 27.8516 120.859 28.0859C121.25 28.2943 121.641 28.4896 122.031 28.6719C122.448 28.8281 122.891 28.9062 123.359 28.9062C123.906 28.9062 124.466 28.8151 125.039 28.6328C125.638 28.4245 126.185 28.151 126.68 27.8125C127.174 27.4479 127.578 27.0182 127.891 26.5234C128.203 26.0026 128.359 25.4427 128.359 24.8438C128.385 24.6615 128.385 24.4401 128.359 24.1797C128.359 23.9193 128.281 23.6589 128.125 23.3984C127.969 23.112 127.708 22.8516 127.344 22.6172C126.979 22.3568 126.445 22.1615 125.742 22.0312C125.065 21.901 124.206 21.8359 123.164 21.8359C122.122 21.8099 120.833 21.901 119.297 22.1094C118.906 22.1094 118.529 22.0052 118.164 21.7969C117.799 21.5625 117.474 21.2891 117.188 20.9766C116.901 20.638 116.667 20.2865 116.484 19.9219C116.302 19.5312 116.211 19.1667 116.211 18.8281C116.211 17.8125 116.419 16.9922 116.836 16.3672C117.279 15.7161 117.839 15.2083 118.516 14.8438C119.193 14.4531 119.948 14.1797 120.781 14.0234C121.615 13.8672 122.461 13.7891 123.32 13.7891C123.711 13.7891 124.154 13.8151 124.648 13.8672C125.169 13.8932 125.638 13.9974 126.055 14.1797C126.497 14.3359 126.862 14.5964 127.148 14.9609C127.461 15.3255 127.617 15.8333 127.617 16.4844C127.565 16.9271 127.487 17.2005 127.383 17.3047C127.305 17.3828 127.174 17.3568 126.992 17.2266C126.836 17.0703 126.641 16.862 126.406 16.6016C126.172 16.3411 125.885 16.0938 125.547 15.8594C125.234 15.599 124.844 15.4036 124.375 15.2734C123.932 15.1432 123.424 15.1432 122.852 15.2734C122.253 15.2734 121.654 15.3385 121.055 15.4688C120.456 15.5729 119.909 15.7682 119.414 16.0547C118.945 16.3411 118.555 16.7318 118.242 17.2266C117.956 17.7214 117.813 18.3464 117.813 19.1016C117.813 19.4922 117.982 19.7656 118.32 19.9219C118.685 20.0521 119.154 20.1172 119.727 20.1172C120.326 20.1172 120.99 20.1042 121.719 20.0781C122.474 20.026 123.242 20 124.023 20C124.805 20 125.56 20.0651 126.289 20.1953C127.018 20.2995 127.656 20.5339 128.203 20.8984C128.776 21.237 129.219 21.7318 129.531 22.3828C129.844 23.0339 129.961 23.8802 129.883 24.9219C129.883 25.6771 129.661 26.3932 129.219 27.0703C128.802 27.7474 128.255 28.3464 127.578 28.8672C126.927 29.362 126.198 29.7526 125.391 30.0391C124.583 30.3255 123.802 30.4297 123.047 30.3516C122.734 30.3255 122.305 30.2474 121.758 30.1172C121.237 29.9609 120.716 29.7526 120.195 29.4922C119.701 29.2318 119.271 28.9193 118.906 28.5547C118.542 28.1641 118.359 27.7083 118.359 27.1875Z" fill="#999999"/>
<path d="M86.9922 23.2031C86.9922 22.6042 87.0443 21.9141 87.1485 21.1328C87.2526 20.3255 87.4219 19.5182 87.6563 18.7109C87.8906 17.9036 88.1771 17.1094 88.5156 16.3281C88.8802 15.5469 89.3099 14.8568 89.8047 14.2578C90.2995 13.6328 90.8724 13.138 91.5235 12.7734C92.1745 12.3828 92.9037 12.1875 93.711 12.1875C94.5443 12.1875 95.3125 12.474 96.0156 13.0469C96.7448 13.6198 97.3568 14.362 97.8516 15.2734C98.3724 16.1849 98.763 17.2005 99.0235 18.3203C99.2839 19.4401 99.388 20.5339 99.336 21.6016C99.336 23.1641 99.0365 24.5573 98.4375 25.7812C97.8386 27.0052 97.0703 27.9948 96.1328 28.75C95.2214 29.5052 94.2318 30.013 93.1641 30.2734C92.1224 30.5339 91.1328 30.4688 90.1953 30.0781C89.2839 29.6615 88.5156 28.8932 87.8906 27.7734C87.2917 26.6536 86.9922 25.1302 86.9922 23.2031ZM88.4375 23.3594C88.5156 24.9479 88.7891 26.1719 89.2578 27.0312C89.7266 27.8906 90.2865 28.4635 90.9375 28.75C91.6146 29.0104 92.3438 29.0104 93.125 28.75C93.9063 28.4896 94.6354 28.0339 95.3125 27.3828C95.9896 26.7057 96.5625 25.8724 97.0313 24.8828C97.5261 23.8672 97.7995 22.7344 97.8516 21.4844C97.9037 20.5469 97.8255 19.6354 97.6172 18.75C97.4349 17.8646 97.1615 17.0833 96.7969 16.4062C96.4583 15.7031 96.0287 15.1562 95.5078 14.7656C95.013 14.349 94.4401 14.1406 93.7891 14.1406C93.1641 14.1406 92.6042 14.2969 92.1094 14.6094C91.6146 14.9219 91.1589 15.3516 90.7422 15.8984C90.3516 16.4193 90.013 17.0182 89.7266 17.6953C89.4401 18.3724 89.1927 19.0495 88.9844 19.7266C88.8021 20.4036 88.6589 21.0677 88.5547 21.7188C88.4766 22.3438 88.4375 22.8906 88.4375 23.3594Z" fill="#999999"/>
<path d="M76.7578 16.1719C76.5235 16.0938 76.1979 16.0677 75.7813 16.0938C75.3906 16.0938 74.961 16.1198 74.4922 16.1719C74.0495 16.1979 73.6198 16.237 73.2031 16.2891C72.7865 16.3411 72.4349 16.3672 72.1485 16.3672C72.0182 16.3672 71.9271 16.1849 71.875 15.8203C71.849 15.4297 71.7969 14.9089 71.7188 14.2578L77.2266 13.8672C77.3047 12.9557 77.3568 12.3047 77.3828 11.9141C77.4089 11.5234 77.4089 11.1979 77.3828 10.9375C77.3828 10.651 77.3698 10.3385 77.3438 10C77.3438 9.63542 77.3438 9.07552 77.3438 8.32031C78.0208 8.21615 78.5287 8.1901 78.8672 8.24219C79.2318 8.26823 79.4792 8.35938 79.6094 8.51563C79.7396 8.67188 79.7917 8.90625 79.7656 9.21875C79.7656 9.50521 79.7266 9.86979 79.6485 10.3125C79.5964 10.7552 79.5443 11.2891 79.4922 11.9141C79.4662 12.5391 79.4922 13.2422 79.5703 14.0234L84.2578 13.8672V15.7813C84.0495 15.7813 83.724 15.7943 83.2813 15.8203C82.8386 15.8464 82.3568 15.8724 81.836 15.8984C81.3412 15.9245 80.8724 15.9505 80.4297 15.9766C80.013 16.0026 79.7005 16.0547 79.4922 16.1328C79.2839 17.0703 79.0625 18.0729 78.8281 19.1406C78.5938 20.2083 78.4375 21.263 78.3594 22.3047C78.2813 23.3464 78.3073 24.3229 78.4375 25.2344C78.5677 26.1198 78.8932 26.862 79.4141 27.4609C79.9349 28.0339 80.6771 28.4375 81.6406 28.6719C82.6042 28.8802 83.8802 28.8021 85.4688 28.4375C85.4167 28.8281 85.2604 29.1536 85 29.4141C84.7656 29.6484 84.4792 29.8438 84.1406 30C83.8281 30.1302 83.4896 30.2344 83.125 30.3125C82.7604 30.3646 82.4349 30.3906 82.1485 30.3906C80.8203 30.3906 79.7656 30.1562 78.9844 29.6875C78.2031 29.1927 77.6172 28.5547 77.2266 27.7734C76.836 26.9922 76.5886 26.1068 76.4844 25.1172C76.3802 24.1016 76.3412 23.0729 76.3672 22.0313C76.4193 20.9896 76.4974 19.9609 76.6016 18.9453C76.7057 17.9297 76.7578 17.0052 76.7578 16.1719Z" fill="#999999"/>
<path d="M57.3047 23.6719C57.3047 22.7083 57.461 21.6406 57.7735 20.4688C58.086 19.2969 58.5417 18.2161 59.1406 17.2266C59.7396 16.2109 60.4818 15.3646 61.3672 14.6875C62.2526 14.0104 63.2813 13.6719 64.4531 13.6719C65.0521 13.5938 65.5339 13.6589 65.8985 13.8672C66.263 14.0495 66.5365 14.349 66.7188 14.7656C66.9271 15.1823 67.0573 15.6641 67.1094 16.2109C67.1875 16.7318 67.2266 17.2786 67.2266 17.8516C67.2526 18.3984 67.2526 18.9193 67.2266 19.4141C67.2266 19.8828 67.2526 20.2734 67.3047 20.5859H66.3281C66.3021 20.4297 66.25 20.0651 66.1719 19.4922C66.1198 18.8932 66.0156 18.2813 65.8594 17.6563C65.7031 17.0313 65.4818 16.4714 65.1953 15.9766C64.9349 15.4818 64.5573 15.2344 64.0625 15.2344C63.3333 15.2344 62.6432 15.5208 61.9922 16.0938C61.3672 16.6667 60.8203 17.3568 60.3516 18.1641C59.8828 18.9714 59.5052 19.8047 59.2188 20.6641C58.9323 21.5234 58.7891 22.2396 58.7891 22.8125C58.8151 23.4635 58.9063 24.1797 59.0625 24.9609C59.2188 25.7161 59.4662 26.4063 59.8047 27.0313C60.1693 27.6563 60.638 28.1641 61.211 28.5547C61.7839 28.9453 62.487 29.0625 63.3203 28.9063C63.9453 28.9063 64.5443 28.776 65.1172 28.5156C65.6901 28.2552 66.25 27.9818 66.7969 27.6953C67.3438 27.4089 67.8906 27.1354 68.4375 26.875C69.0104 26.6146 69.6094 26.4844 70.2344 26.4844C70.2344 27.1615 69.987 27.7604 69.4922 28.2813C68.9974 28.776 68.3854 29.1797 67.6563 29.4922C66.9531 29.8047 66.1979 30.0391 65.3906 30.1953C64.6094 30.3516 63.9453 30.4297 63.3985 30.4297C62.513 30.4297 61.6927 30.2474 60.9375 29.8828C60.2083 29.5182 59.5703 29.0365 59.0235 28.4375C58.4766 27.8125 58.0469 27.0964 57.7344 26.2891C57.4479 25.4557 57.3047 24.5833 57.3047 23.6719Z" fill="#999999"/>
<path d="M43.7891 26.9922C43.7891 25.5078 44.1927 24.4271 45 23.75C45.8333 23.0729 46.9141 22.7344 48.2422 22.7344C48.763 22.7344 49.2448 22.7474 49.6875 22.7734C50.1563 22.7995 50.599 22.8646 51.0156 22.9688C51.4323 23.0729 51.836 23.2292 52.2266 23.4375C52.6432 23.6458 53.0729 23.9453 53.5156 24.3359C53.5156 24.2578 53.5156 24.1016 53.5156 23.8672C53.5417 23.6068 53.5547 23.3333 53.5547 23.0469C53.5547 22.7604 53.5547 22.5 53.5547 22.2656C53.5547 22.0052 53.5547 21.8229 53.5547 21.7188C53.5287 21.25 53.5156 20.651 53.5156 19.9219C53.5156 19.1667 53.4505 18.3984 53.3203 17.6172C53.2162 16.8359 52.9818 16.0938 52.6172 15.3906C52.2787 14.6875 51.7188 14.1536 50.9375 13.7891C50.3906 13.7891 49.8828 13.8802 49.4141 14.0625C48.9453 14.2448 48.4766 14.4401 48.0078 14.6484C47.5391 14.8568 47.0703 15.0521 46.6016 15.2344C46.1328 15.3906 45.625 15.4688 45.0781 15.4688C45.0781 14.8177 45.2735 14.2839 45.6641 13.8672C46.0807 13.4245 46.5755 13.0859 47.1485 12.8516C47.7214 12.6172 48.3203 12.4609 48.9453 12.3828C49.5703 12.3047 50.1172 12.2656 50.586 12.2656C51.0547 12.3438 51.4844 12.4349 51.875 12.5391C52.2917 12.6432 52.6693 12.8516 53.0078 13.1641C53.3724 13.4766 53.6979 13.9583 53.9844 14.6094C54.2969 15.2344 54.5573 16.1198 54.7656 17.2656C55 18.4115 55.1953 19.8698 55.3516 21.6406C55.5339 23.3854 55.6771 25.5339 55.7813 28.0859C55.8333 28.4245 55.7162 28.724 55.4297 28.9844C55.1693 29.2188 54.8047 29.4271 54.336 29.6094C53.8672 29.7656 53.3333 29.9089 52.7344 30.0391C52.1615 30.1432 51.5755 30.2214 50.9766 30.2734C50.3776 30.3255 49.8047 30.3646 49.2578 30.3906C48.711 30.4167 48.2552 30.4297 47.8906 30.4297C47.4219 30.4297 46.9401 30.3516 46.4453 30.1953C45.9766 30.0391 45.5339 29.8177 45.1172 29.5312C44.7266 29.2188 44.4011 28.8542 44.1406 28.4375C43.9063 27.9948 43.7891 27.513 43.7891 26.9922ZM48.8672 24.2578C47.5651 24.6224 46.6537 25.0651 46.1328 25.5859C45.612 26.0807 45.3776 26.5625 45.4297 27.0312C45.5078 27.5 45.8203 27.9297 46.3672 28.3203C46.9141 28.6849 47.5781 28.9323 48.3594 29.0625C49.1406 29.1667 49.987 29.1016 50.8985 28.8672C51.8099 28.6068 52.6823 28.112 53.5156 27.3828C53.2031 26.6276 52.8906 26.0547 52.5781 25.6641C52.2656 25.2474 51.9271 24.9349 51.5625 24.7266C51.1979 24.5182 50.7943 24.388 50.3516 24.3359C49.9089 24.2839 49.4141 24.2578 48.8672 24.2578Z" fill="#999999"/>
<path d="M27.3828 20.2344C27.2787 20.3125 27.1354 20.3385 26.9531 20.3125C26.7708 20.2865 26.6016 20.2474 26.4453 20.1953C26.2891 20.1172 26.1458 20.026 26.0156 19.9219C25.9115 19.7917 25.8594 19.6484 25.8594 19.4922C25.8594 18.6068 26.1328 17.7995 26.6797 17.0703C27.2266 16.3151 27.9037 15.6771 28.711 15.1562C29.5182 14.6094 30.3776 14.1927 31.2891 13.9062C32.2005 13.5938 33.0339 13.4375 33.7891 13.4375C34.987 13.4375 36.0677 13.6458 37.0313 14.0625C38.0208 14.4531 38.8542 15 39.5313 15.7031C40.2344 16.4062 40.7682 17.2266 41.1328 18.1641C41.5235 19.1016 41.7188 20.1042 41.7188 21.1719C41.7448 22.526 41.4323 23.763 40.7813 24.8828C40.1563 26.0026 39.3229 26.9661 38.2813 27.7734C37.2656 28.5547 36.1198 29.1536 34.8438 29.5703C33.5938 29.9609 32.3568 30.1042 31.1328 30C31.1849 30.9375 31.1719 32.0052 31.0938 33.2031C31.0156 34.4271 30.9115 35.7552 30.7813 37.1875C30.6511 38.6198 30.4818 40.1302 30.2735 41.7188C30.0912 43.3333 29.8958 44.987 29.6875 46.6797C29.6875 46.7057 29.6094 46.7188 29.4531 46.7188C29.2969 46.7188 29.1276 46.6927 28.9453 46.6406C28.7891 46.6146 28.6198 46.5755 28.4375 46.5234C28.2813 46.4974 28.1901 46.4974 28.1641 46.5234C28.3464 44.362 28.4896 42.1745 28.5938 39.9609C28.6979 37.7474 28.737 35.5208 28.711 33.2812C28.6849 31.0677 28.5677 28.8672 28.3594 26.6797C28.1511 24.4922 27.8255 22.3438 27.3828 20.2344ZM33.3203 15.625C32.8255 15.651 32.2917 15.7292 31.7188 15.8594C31.1458 15.9635 30.638 16.1328 30.1953 16.3672C29.7526 16.6016 29.4011 16.9141 29.1406 17.3047C28.8802 17.6953 28.7891 18.1771 28.8672 18.75C28.9193 19.0104 28.9844 19.388 29.0625 19.8828C29.1667 20.3776 29.2708 20.9375 29.375 21.5625C29.5052 22.1875 29.6224 22.8385 29.7266 23.5156C29.8568 24.1927 29.974 24.8438 30.0781 25.4688C30.2083 26.0938 30.3125 26.6667 30.3906 27.1875C30.4948 27.6823 30.5729 28.0599 30.625 28.3203C30.9375 28.2682 31.3802 28.2161 31.9531 28.1641C32.5261 28.112 33.138 28.0078 33.7891 27.8516C34.4401 27.6953 35.1042 27.487 35.7813 27.2266C36.4844 26.9401 37.1354 26.5495 37.7344 26.0547C38.3333 25.5599 38.8542 24.9479 39.2969 24.2188C39.7656 23.4635 40.0781 22.5391 40.2344 21.4453C40.2344 20.4297 40.0521 19.5573 39.6875 18.8281C39.3229 18.099 38.8281 17.5 38.2031 17.0312C37.5781 16.5365 36.836 16.1849 35.9766 15.9766C35.1432 15.7422 34.2578 15.625 33.3203 15.625Z" fill="#999999"/>
<path d="M4.10156 15.1172C4.41406 15.1172 4.7526 15.1953 5.11719 15.3516C5.48177 15.5078 5.74219 15.8203 5.89844 16.2891C6.10677 15.4036 6.41927 14.6875 6.83594 14.1406C7.27865 13.5938 7.77344 13.2161 8.32031 13.0078C8.89323 12.7995 9.47917 12.7344 10.0781 12.8125C10.7031 12.8646 11.276 13.0469 11.7969 13.3594C12.3438 13.6719 12.8125 14.0755 13.2031 14.5703C13.6198 15.0651 13.9062 15.638 14.0625 16.2891C14.349 15.4818 14.7266 14.7396 15.1953 14.0625C15.6901 13.3594 16.224 12.7734 16.7969 12.3047C17.3958 11.8359 18.0078 11.5104 18.6328 11.3281C19.2839 11.1458 19.8828 11.1589 20.4297 11.3672C21.0026 11.5495 21.4974 11.9661 21.9141 12.6172C22.3568 13.2422 22.6693 14.1536 22.8516 15.3516C22.9036 15.6901 22.9688 16.1979 23.0469 16.875C23.125 17.526 23.2031 18.2682 23.2812 19.1016C23.3854 19.9349 23.4896 20.8203 23.5938 21.7578C23.724 22.6693 23.8281 23.5417 23.9062 24.375C24.0104 25.2083 24.1016 25.9635 24.1797 26.6406C24.2578 27.2917 24.3229 27.7734 24.375 28.0859C24.375 28.3464 24.362 28.6328 24.3359 28.9453C24.3099 29.2578 24.2448 29.5312 24.1406 29.7656C24.0625 29.974 23.9193 30.1172 23.7109 30.1953C23.5286 30.2474 23.2422 30.1302 22.8516 29.8438C22.8516 29.5312 22.8125 29.0234 22.7344 28.3203C22.6562 27.6172 22.5781 26.8099 22.5 25.8984C22.4219 24.9609 22.3177 23.9844 22.1875 22.9688C22.0833 21.9271 21.9661 20.9505 21.8359 20.0391C21.7318 19.1276 21.6406 18.3203 21.5625 17.6172C21.4844 16.9141 21.4062 16.4193 21.3281 16.1328C20.9375 14.9349 20.5208 14.1016 20.0781 13.6328C19.6615 13.1641 19.2318 12.9557 18.7891 13.0078C18.3724 13.0599 17.9688 13.3333 17.5781 13.8281C17.1875 14.3229 16.8359 14.9479 16.5234 15.7031C16.2109 16.4583 15.9115 17.3047 15.625 18.2422C15.3646 19.1536 15.1562 20.0651 15 20.9766C14.8698 21.888 14.7786 22.7474 14.7266 23.5547C14.7005 24.362 14.7526 25.026 14.8828 25.5469L13.3594 25.8594C13.4375 23.3594 13.3464 21.3151 13.0859 19.7266C12.8516 18.112 12.513 16.875 12.0703 16.0156C11.6536 15.1563 11.1719 14.6484 10.625 14.4922C10.0781 14.3099 9.53125 14.4141 8.98438 14.8047C8.46354 15.1953 7.98177 15.8464 7.53906 16.7578C7.09635 17.6693 6.75781 18.776 6.52344 20.0781C6.3151 21.3542 6.23698 22.7995 6.28906 24.4141C6.34115 26.0286 6.61458 27.7604 7.10938 29.6094H5.625C5.625 29.6094 5.58594 29.362 5.50781 28.8672C5.45573 28.3724 5.3776 27.7474 5.27344 26.9922C5.19531 26.2109 5.10417 25.3385 5 24.375C4.89583 23.3854 4.79167 22.3958 4.6875 21.4063C4.58333 20.3906 4.47917 19.4271 4.375 18.5156C4.27083 17.5781 4.17969 16.7839 4.10156 16.1328C4.10156 16.0547 4.10156 15.8854 4.10156 15.625C4.10156 15.3385 4.10156 15.1693 4.10156 15.1172Z" fill="#999999"/>
<path d="M0 2.89062C0 2.57812 0.104167 2.33073 0.3125 2.14844C0.546875 1.9401 0.820312 1.83594 1.13281 1.83594C1.15885 1.83594 1.22396 1.83594 1.32812 1.83594C1.43229 1.83594 1.4974 1.83594 1.52344 1.83594C1.65365 4.02344 1.77083 6.10677 1.875 8.08594C1.97917 10.0391 2.05729 11.9661 2.10938 13.8672C2.1875 15.7682 2.23958 17.6693 2.26562 19.5703C2.29167 21.4453 2.30469 23.4115 2.30469 25.4688C2.30469 25.7552 2.31771 26.1458 2.34375 26.6406C2.39583 27.1354 2.4349 27.6172 2.46094 28.0859C2.51302 28.5547 2.55208 28.9844 2.57812 29.375C2.63021 29.7396 2.65625 29.9349 2.65625 29.9609L0.976562 30.2734C0.924479 29.2057 0.872396 27.9818 0.820312 26.6016C0.768229 25.1953 0.716146 23.7109 0.664062 22.1484C0.638021 20.5599 0.598958 18.9323 0.546875 17.2656C0.520833 15.5729 0.46875 13.9062 0.390625 12.2656C0.338542 10.625 0.273438 9.04948 0.195312 7.53906C0.143229 6.0026 0.078125 4.60938 0 3.35938V2.89062Z" fill="#999999"/>
</svg>
