<svg width="236" height="41" viewBox="0 0 236 41" fill="none" xmlns="http://www.w3.org/2000/svg">
<path d="M226.943 11.6545C227.957 11.6545 228.797 11.7879 229.463 12.0545C230.157 12.3212 230.73 12.6945 231.183 13.1745C231.69 13.7079 232.05 14.3745 232.263 15.1745C232.477 15.9745 232.583 17.0545 232.583 18.4145V29.0945C232.583 30.2145 232.81 30.9745 233.263 31.3745C233.743 31.7745 234.53 31.9745 235.623 31.9745V32.8145C235.17 32.7879 234.477 32.7612 233.543 32.7345C232.61 32.6812 231.703 32.6545 230.823 32.6545C229.943 32.6545 229.077 32.6812 228.223 32.7345C227.397 32.7612 226.77 32.7879 226.343 32.8145V31.9745C227.303 31.9745 227.983 31.7745 228.383 31.3745C228.783 30.9745 228.983 30.2145 228.983 29.0945V17.5345C228.983 16.7079 228.917 15.9479 228.783 15.2545C228.65 14.5612 228.343 14.0012 227.863 13.5745C227.41 13.1479 226.703 12.9345 225.743 12.9345C224.623 12.9345 223.637 13.2545 222.783 13.8945C221.957 14.5345 221.303 15.4145 220.823 16.5345C220.37 17.6279 220.143 18.8545 220.143 20.2145V29.0945C220.143 30.2145 220.343 30.9745 220.743 31.3745C221.143 31.7745 221.823 31.9745 222.783 31.9745V32.8145C222.357 32.7879 221.717 32.7612 220.863 32.7345C220.037 32.6812 219.183 32.6545 218.303 32.6545C217.423 32.6545 216.517 32.6812 215.583 32.7345C214.65 32.7612 213.957 32.7879 213.503 32.8145V31.9745C214.597 31.9745 215.37 31.7745 215.823 31.3745C216.303 30.9745 216.543 30.2145 216.543 29.0945V16.5745C216.543 15.3745 216.33 14.4945 215.903 13.9345C215.477 13.3479 214.677 13.0545 213.503 13.0545V12.2145C214.357 12.2945 215.183 12.3345 215.983 12.3345C216.757 12.3345 217.49 12.2945 218.183 12.2145C218.903 12.1079 219.557 11.9612 220.143 11.7745V16.4945C220.837 14.6812 221.797 13.4279 223.023 12.7345C224.277 12.0145 225.583 11.6545 226.943 11.6545Z" fill="#999999"/>
<path d="M201.389 11.6545C203.096 11.6545 204.629 12.0279 205.989 12.7745C207.349 13.5212 208.429 14.6945 209.229 16.2945C210.056 17.8945 210.469 19.9745 210.469 22.5345C210.469 25.0945 210.056 27.1745 209.229 28.7745C208.429 30.3479 207.349 31.5079 205.989 32.2545C204.629 33.0012 203.096 33.3745 201.389 33.3745C199.709 33.3745 198.176 33.0012 196.789 32.2545C195.429 31.5079 194.336 30.3479 193.509 28.7745C192.709 27.1745 192.309 25.0945 192.309 22.5345C192.309 19.9745 192.709 17.8945 193.509 16.2945C194.336 14.6945 195.429 13.5212 196.789 12.7745C198.176 12.0279 199.709 11.6545 201.389 11.6545ZM201.389 12.4545C199.869 12.4545 198.616 13.2412 197.629 14.8145C196.669 16.3879 196.189 18.9612 196.189 22.5345C196.189 26.1079 196.669 28.6812 197.629 30.2545C198.616 31.8012 199.869 32.5745 201.389 32.5745C202.909 32.5745 204.149 31.8012 205.109 30.2545C206.096 28.6812 206.589 26.1079 206.589 22.5345C206.589 18.9612 206.096 16.3879 205.109 14.8145C204.149 13.2412 202.909 12.4545 201.389 12.4545ZM205.789 0.294547C206.109 0.561213 206.283 0.907879 206.309 1.33454C206.363 1.76121 206.189 2.24121 205.789 2.77455C205.389 3.28121 204.896 3.78788 204.309 4.29454C203.723 4.80121 203.029 5.41455 202.229 6.13454C201.456 6.82788 200.536 7.73455 199.469 8.85455L199.029 8.49455C199.856 7.18788 200.509 6.06788 200.989 5.13455C201.496 4.20121 201.923 3.38788 202.269 2.69455C202.616 2.00121 202.989 1.40121 203.389 0.894545C203.789 0.361212 204.203 0.0678793 204.629 0.0145451C205.083 -0.0387876 205.469 0.0545466 205.789 0.294547Z" fill="#999999"/>
<path d="M184.431 2.21455C185.124 2.21455 185.724 2.46788 186.231 2.97455C186.737 3.48121 186.991 4.08121 186.991 4.77455C186.991 5.46788 186.737 6.06788 186.231 6.57455C185.724 7.08121 185.124 7.33455 184.431 7.33455C183.737 7.33455 183.137 7.08121 182.631 6.57455C182.124 6.06788 181.871 5.46788 181.871 4.77455C181.871 4.08121 182.124 3.48121 182.631 2.97455C183.137 2.46788 183.737 2.21455 184.431 2.21455ZM186.511 11.7745V29.0945C186.511 30.2145 186.737 30.9745 187.191 31.3745C187.671 31.7745 188.457 31.9745 189.551 31.9745V32.8145C189.097 32.7879 188.404 32.7612 187.471 32.7345C186.564 32.6812 185.644 32.6545 184.711 32.6545C183.804 32.6545 182.884 32.6812 181.951 32.7345C181.017 32.7612 180.324 32.7879 179.871 32.8145V31.9745C180.964 31.9745 181.737 31.7745 182.191 31.3745C182.671 30.9745 182.911 30.2145 182.911 29.0945V16.5745C182.911 15.3745 182.697 14.4945 182.271 13.9345C181.844 13.3479 181.044 13.0545 179.871 13.0545V12.2145C180.724 12.2945 181.551 12.3345 182.351 12.3345C183.124 12.3345 183.857 12.2945 184.551 12.2145C185.271 12.1079 185.924 11.9612 186.511 11.7745Z" fill="#999999"/>
<path d="M170.417 11.6545C171.271 11.6545 172.097 11.7612 172.897 11.9745C173.697 12.1879 174.417 12.5079 175.057 12.9345C175.671 13.3345 176.137 13.8012 176.457 14.3345C176.777 14.8412 176.937 15.4012 176.937 16.0145C176.937 16.7345 176.737 17.2945 176.337 17.6945C175.937 18.0679 175.431 18.2545 174.817 18.2545C174.231 18.2545 173.711 18.0812 173.257 17.7345C172.831 17.3879 172.617 16.8945 172.617 16.2545C172.617 15.6412 172.777 15.1479 173.097 14.7745C173.444 14.4012 173.844 14.1612 174.297 14.0545C174.031 13.5745 173.551 13.1745 172.857 12.8545C172.191 12.5345 171.471 12.3745 170.697 12.3745C170.031 12.3745 169.364 12.5345 168.697 12.8545C168.031 13.1745 167.417 13.7079 166.857 14.4545C166.297 15.1745 165.844 16.1745 165.497 17.4545C165.151 18.7079 164.977 20.2812 164.977 22.1745C164.977 24.5212 165.244 26.3879 165.777 27.7745C166.311 29.1612 167.004 30.1612 167.857 30.7745C168.737 31.3612 169.697 31.6545 170.737 31.6545C171.431 31.6545 172.137 31.5212 172.857 31.2545C173.577 30.9879 174.257 30.5612 174.897 29.9745C175.537 29.3612 176.084 28.5479 176.537 27.5345L177.297 27.8145C177.031 28.6679 176.591 29.5345 175.977 30.4145C175.364 31.2679 174.564 31.9745 173.577 32.5345C172.591 33.0945 171.377 33.3745 169.937 33.3745C168.284 33.3745 166.791 32.9479 165.457 32.0945C164.124 31.2412 163.057 30.0279 162.257 28.4545C161.484 26.8545 161.097 24.9612 161.097 22.7745C161.097 20.5879 161.484 18.6679 162.257 17.0145C163.057 15.3345 164.164 14.0279 165.577 13.0945C166.991 12.1345 168.604 11.6545 170.417 11.6545Z" fill="#999999"/>
<path d="M146.176 33.0945C145.082 33.0945 144.136 32.8945 143.336 32.4945C142.536 32.0679 141.922 31.4812 141.496 30.7345C141.096 29.9879 140.896 29.1212 140.896 28.1345C140.896 26.9612 141.162 26.0012 141.696 25.2545C142.256 24.5079 142.962 23.9079 143.816 23.4545C144.669 23.0012 145.562 22.6279 146.496 22.3345C147.456 22.0145 148.362 21.7212 149.216 21.4545C150.069 21.1612 150.762 20.8279 151.296 20.4545C151.856 20.0812 152.136 19.5879 152.136 18.9745V16.4945C152.136 15.3745 151.962 14.5212 151.616 13.9345C151.296 13.3479 150.856 12.9612 150.296 12.7745C149.736 12.5612 149.109 12.4545 148.416 12.4545C147.749 12.4545 147.029 12.5479 146.256 12.7345C145.509 12.9212 144.909 13.3079 144.456 13.8945C144.962 14.0012 145.402 14.2679 145.776 14.6945C146.149 15.1212 146.336 15.6679 146.336 16.3345C146.336 17.0012 146.122 17.5345 145.696 17.9345C145.269 18.3079 144.722 18.4945 144.056 18.4945C143.282 18.4945 142.709 18.2545 142.336 17.7745C141.989 17.2679 141.816 16.7079 141.816 16.0945C141.816 15.4012 141.989 14.8412 142.336 14.4145C142.682 13.9879 143.122 13.5879 143.656 13.2145C144.269 12.7879 145.056 12.4279 146.016 12.1345C147.002 11.8145 148.109 11.6545 149.336 11.6545C150.429 11.6545 151.362 11.7879 152.136 12.0545C152.909 12.2945 153.549 12.6545 154.056 13.1345C154.749 13.7745 155.202 14.5612 155.416 15.4945C155.629 16.4012 155.736 17.4945 155.736 18.7745V29.8945C155.736 30.5612 155.829 31.0412 156.016 31.3345C156.229 31.6279 156.549 31.7745 156.976 31.7745C157.269 31.7745 157.549 31.7079 157.816 31.5745C158.082 31.4412 158.402 31.2279 158.776 30.9345L159.216 31.6145C158.656 32.0412 158.122 32.4012 157.616 32.6945C157.109 32.9612 156.429 33.0945 155.576 33.0945C154.802 33.0945 154.162 32.9612 153.656 32.6945C153.149 32.4279 152.762 32.0412 152.496 31.5345C152.256 31.0012 152.136 30.3345 152.136 29.5345C151.416 30.7345 150.549 31.6279 149.536 32.2145C148.549 32.8012 147.429 33.0945 146.176 33.0945ZM147.616 31.4945C148.496 31.4945 149.309 31.2412 150.056 30.7345C150.829 30.2279 151.522 29.4679 152.136 28.4545V20.6145C151.816 21.0679 151.349 21.4545 150.736 21.7745C150.122 22.0679 149.456 22.3745 148.736 22.6945C148.016 22.9879 147.322 23.3479 146.656 23.7745C146.016 24.1745 145.482 24.7079 145.056 25.3745C144.629 26.0412 144.416 26.9079 144.416 27.9745C144.416 29.0412 144.696 29.8945 145.256 30.5345C145.842 31.1745 146.629 31.4945 147.616 31.4945Z" fill="#999999"/>
<path d="M127.113 40.3345C125.7 40.3345 124.367 40.1879 123.113 39.8945C121.86 39.6012 120.847 39.1345 120.073 38.4945C119.327 37.8812 118.953 37.0945 118.953 36.1345C118.953 35.2012 119.327 34.4012 120.073 33.7345C120.82 33.0679 121.833 32.5612 123.113 32.2145L123.353 32.8545C122.767 33.0412 122.3 33.4145 121.953 33.9745C121.607 34.5345 121.433 35.1612 121.433 35.8545C121.433 37.0812 121.993 38.0145 123.113 38.6545C124.26 39.3212 125.74 39.6545 127.553 39.6545C128.753 39.6545 129.927 39.4945 131.073 39.1745C132.22 38.8812 133.167 38.3745 133.913 37.6545C134.66 36.9345 135.033 35.9879 135.033 34.8145C135.033 33.9345 134.713 33.2145 134.073 32.6545C133.46 32.0679 132.233 31.7745 130.393 31.7745H127.433C126.58 31.7745 125.753 31.7079 124.953 31.5745C124.153 31.4412 123.5 31.1612 122.993 30.7345C122.487 30.3079 122.233 29.6545 122.233 28.7745C122.233 27.8679 122.607 27.0012 123.353 26.1745C124.1 25.3212 125.473 24.4545 127.473 23.5745L127.953 23.9345C127.047 24.4145 126.26 24.9079 125.593 25.4145C124.927 25.8945 124.593 26.4679 124.593 27.1345C124.593 27.9879 125.233 28.4145 126.513 28.4145H131.513C132.633 28.4145 133.66 28.5745 134.593 28.8945C135.553 29.2145 136.327 29.7212 136.913 30.4145C137.5 31.1079 137.793 32.0145 137.793 33.1345C137.793 34.3879 137.393 35.5612 136.593 36.6545C135.793 37.7479 134.593 38.6279 132.993 39.2945C131.42 39.9879 129.46 40.3345 127.113 40.3345ZM127.313 24.2945C126.007 24.2945 124.82 24.0812 123.753 23.6545C122.687 23.2012 121.847 22.5079 121.233 21.5745C120.62 20.6412 120.313 19.4412 120.313 17.9745C120.313 16.5079 120.62 15.3079 121.233 14.3745C121.847 13.4412 122.687 12.7612 123.753 12.3345C124.82 11.8812 126.007 11.6545 127.313 11.6545C128.647 11.6545 129.833 11.8812 130.873 12.3345C131.94 12.7612 132.78 13.4412 133.393 14.3745C134.007 15.3079 134.313 16.5079 134.313 17.9745C134.313 19.4412 134.007 20.6412 133.393 21.5745C132.78 22.5079 131.94 23.2012 130.873 23.6545C129.833 24.0812 128.647 24.2945 127.313 24.2945ZM127.313 23.5745C128.327 23.5745 129.113 23.1745 129.673 22.3745C130.26 21.5745 130.553 20.1079 130.553 17.9745C130.553 15.8412 130.26 14.3745 129.673 13.5745C129.113 12.7745 128.327 12.3745 127.313 12.3745C126.327 12.3745 125.54 12.7745 124.953 13.5745C124.367 14.3745 124.073 15.8412 124.073 17.9745C124.073 20.1079 124.367 21.5745 124.953 22.3745C125.54 23.1745 126.327 23.5745 127.313 23.5745ZM133.073 14.9745L132.353 14.6945C132.727 13.7879 133.367 12.9879 134.273 12.2945C135.18 11.6012 136.127 11.2545 137.113 11.2545C137.807 11.2545 138.367 11.4545 138.793 11.8545C139.22 12.2279 139.433 12.8012 139.433 13.5745C139.433 14.4012 139.207 14.9879 138.753 15.3345C138.327 15.6545 137.887 15.8145 137.433 15.8145C137.033 15.8145 136.66 15.6812 136.313 15.4145C135.967 15.1212 135.767 14.6679 135.713 14.0545C135.66 13.4412 135.847 12.6545 136.273 11.6945L136.793 11.8145C135.673 12.2412 134.873 12.6945 134.393 13.1745C133.913 13.6279 133.473 14.2279 133.073 14.9745Z" fill="#999999"/>
<path d="M112.595 2.21455C113.288 2.21455 113.888 2.46788 114.395 2.97455C114.901 3.48121 115.155 4.08121 115.155 4.77455C115.155 5.46788 114.901 6.06788 114.395 6.57455C113.888 7.08121 113.288 7.33455 112.595 7.33455C111.901 7.33455 111.301 7.08121 110.795 6.57455C110.288 6.06788 110.035 5.46788 110.035 4.77455C110.035 4.08121 110.288 3.48121 110.795 2.97455C111.301 2.46788 111.901 2.21455 112.595 2.21455ZM114.675 11.7745V29.0945C114.675 30.2145 114.901 30.9745 115.355 31.3745C115.835 31.7745 116.621 31.9745 117.715 31.9745V32.8145C117.261 32.7879 116.568 32.7612 115.635 32.7345C114.728 32.6812 113.808 32.6545 112.875 32.6545C111.968 32.6545 111.048 32.6812 110.115 32.7345C109.181 32.7612 108.488 32.7879 108.035 32.8145V31.9745C109.128 31.9745 109.901 31.7745 110.355 31.3745C110.835 30.9745 111.075 30.2145 111.075 29.0945V16.5745C111.075 15.3745 110.861 14.4945 110.435 13.9345C110.008 13.3479 109.208 13.0545 108.035 13.0545V12.2145C108.888 12.2945 109.715 12.3345 110.515 12.3345C111.288 12.3345 112.021 12.2945 112.715 12.2145C113.435 12.1079 114.088 11.9612 114.675 11.7745Z" fill="#999999"/>
<path d="M100.334 5.57455V12.2545H106.254V13.0545H100.334V28.5345C100.334 29.7879 100.561 30.6679 101.014 31.1745C101.467 31.6812 102.094 31.9345 102.894 31.9345C103.694 31.9345 104.387 31.6145 104.974 30.9745C105.561 30.3079 106.067 29.2012 106.494 27.6545L107.294 27.8545C107.027 29.4012 106.494 30.7079 105.694 31.7745C104.921 32.8412 103.721 33.3745 102.094 33.3745C101.187 33.3745 100.441 33.2545 99.8541 33.0145C99.2674 32.8012 98.7474 32.4812 98.2941 32.0545C97.7074 31.4412 97.2941 30.7079 97.0541 29.8545C96.8408 29.0012 96.7341 27.8679 96.7341 26.4545V13.0545H92.8941V12.2545H96.7341V6.13455C97.4008 6.10788 98.0408 6.05455 98.6541 5.97455C99.2674 5.89455 99.8274 5.76121 100.334 5.57455Z" fill="#999999"/>
<path d="M83.1634 11.6545C84.2301 11.6545 85.1368 11.8279 85.8834 12.1745C86.6301 12.5212 87.1768 12.8412 87.5234 13.1345C88.4034 13.8545 88.9368 13.3745 89.1234 11.6945H90.0434C89.9901 12.4412 89.9501 13.3345 89.9234 14.3745C89.8968 15.3879 89.8834 16.7612 89.8834 18.4945H88.9634C88.8034 17.5079 88.5234 16.5479 88.1234 15.6145C87.7501 14.6812 87.1901 13.9212 86.4434 13.3345C85.6968 12.7212 84.7234 12.4145 83.5234 12.4145C82.5901 12.4145 81.8034 12.6812 81.1634 13.2145C80.5501 13.7212 80.2434 14.4812 80.2434 15.4945C80.2434 16.2945 80.4834 16.9879 80.9634 17.5745C81.4434 18.1345 82.0701 18.6679 82.8434 19.1745C83.6168 19.6545 84.4568 20.1879 85.3634 20.7745C86.3768 21.4145 87.2968 22.0679 88.1234 22.7345C88.9501 23.4012 89.6034 24.1345 90.0834 24.9345C90.5901 25.7345 90.8434 26.6812 90.8434 27.7745C90.8434 29.0012 90.5234 30.0279 89.8834 30.8545C89.2434 31.6812 88.4034 32.3079 87.3634 32.7345C86.3501 33.1612 85.2301 33.3745 84.0034 33.3745C83.4168 33.3745 82.8568 33.3212 82.3234 33.2145C81.8168 33.1345 81.3234 33.0012 80.8434 32.8145C80.5768 32.6812 80.2968 32.5212 80.0034 32.3345C79.7368 32.1479 79.4701 31.9479 79.2034 31.7345C78.9368 31.5212 78.6968 31.5345 78.4834 31.7745C78.2701 31.9879 78.1101 32.4279 78.0034 33.0945H77.0834C77.1368 32.2412 77.1768 31.2012 77.2034 29.9745C77.2301 28.7479 77.2434 27.1212 77.2434 25.0945H78.1634C78.3501 26.5879 78.6168 27.8945 78.9634 29.0145C79.3101 30.1345 79.8568 31.0145 80.6034 31.6545C81.3501 32.2679 82.3901 32.5745 83.7234 32.5745C84.2568 32.5745 84.7901 32.4545 85.3234 32.2145C85.8834 31.9745 86.3501 31.5745 86.7234 31.0145C87.0968 30.4545 87.2834 29.7079 87.2834 28.7745C87.2834 27.6012 86.8568 26.6412 86.0034 25.8945C85.1501 25.1479 84.0701 24.3612 82.7634 23.5345C81.8034 22.9212 80.8968 22.3079 80.0434 21.6945C79.2168 21.0812 78.5368 20.3879 78.0034 19.6145C77.4968 18.8412 77.2434 17.9079 77.2434 16.8145C77.2434 15.6145 77.5101 14.6412 78.0434 13.8945C78.6034 13.1212 79.3368 12.5612 80.2434 12.2145C81.1501 11.8412 82.1234 11.6545 83.1634 11.6545Z" fill="#999999"/>
<path d="M65.4891 11.6545C67.8358 11.6545 69.6624 12.3745 70.9691 13.8145C72.3024 15.2279 72.9691 17.4412 72.9691 20.4545H58.8491L58.8091 19.6945H69.1291C69.1824 18.3879 69.0758 17.1879 68.8091 16.0945C68.5424 14.9745 68.1158 14.0812 67.5291 13.4145C66.9691 12.7479 66.2358 12.4145 65.3291 12.4145C64.1024 12.4145 63.0091 13.0279 62.0491 14.2545C61.1158 15.4812 60.5558 17.4279 60.3691 20.0945L60.4891 20.2545C60.4358 20.6545 60.3958 21.0945 60.3691 21.5745C60.3424 22.0545 60.3291 22.5345 60.3291 23.0145C60.3291 24.8279 60.6224 26.3879 61.2091 27.6945C61.7958 29.0012 62.5558 30.0012 63.4891 30.6945C64.4491 31.3612 65.4358 31.6945 66.4491 31.6945C67.2491 31.6945 68.0091 31.5745 68.7291 31.3345C69.4491 31.0679 70.1158 30.6412 70.7291 30.0545C71.3424 29.4679 71.8758 28.6812 72.3291 27.6945L73.1291 28.0145C72.8358 28.8945 72.3558 29.7479 71.6891 30.5745C71.0224 31.4012 70.1824 32.0812 69.1691 32.6145C68.1558 33.1212 66.9824 33.3745 65.6491 33.3745C63.7291 33.3745 62.0758 32.9345 60.6891 32.0545C59.3291 31.1746 58.2758 29.9612 57.5291 28.4145C56.8091 26.8412 56.4491 25.0412 56.4491 23.0145C56.4491 20.6679 56.8224 18.6545 57.5691 16.9745C58.3158 15.2679 59.3691 13.9612 60.7291 13.0545C62.0891 12.1212 63.6758 11.6545 65.4891 11.6545Z" fill="#999999"/>
<path d="M54.8303 12.2145V13.0145C54.3236 13.0679 53.857 13.2945 53.4303 13.6945C53.0036 14.0945 52.6036 14.8012 52.2303 15.8145L45.6703 33.0145C45.5636 33.0145 45.457 33.0145 45.3503 33.0145C45.2436 33.0145 45.1236 33.0145 44.9903 33.0145L37.6303 15.2945C37.2036 14.2545 36.777 13.6279 36.3503 13.4145C35.9503 13.1745 35.6036 13.0545 35.3103 13.0545V12.2145C35.8436 12.2412 36.3903 12.2812 36.9503 12.3345C37.537 12.3612 38.1636 12.3745 38.8303 12.3745C39.657 12.3745 40.5236 12.3612 41.4303 12.3345C42.3636 12.3079 43.2303 12.2679 44.0303 12.2145V13.0545C43.3636 13.0545 42.7636 13.1079 42.2303 13.2145C41.7236 13.2945 41.3903 13.5479 41.2303 13.9745C41.097 14.4012 41.2303 15.1345 41.6303 16.1745L46.6303 28.5345L46.3903 28.7345L50.9503 16.7745C51.297 15.8945 51.4303 15.2012 51.3503 14.6945C51.297 14.1612 51.0303 13.7612 50.5503 13.4945C50.097 13.2279 49.3903 13.0679 48.4303 13.0145V12.2145C48.9103 12.2412 49.3236 12.2679 49.6703 12.2945C50.017 12.2945 50.3503 12.3079 50.6703 12.3345C51.017 12.3345 51.3903 12.3345 51.7903 12.3345C52.4036 12.3345 52.9503 12.3212 53.4303 12.2945C53.937 12.2679 54.4036 12.2412 54.8303 12.2145Z" fill="#999999"/>
<path d="M26.4747 11.6545C27.488 11.6545 28.328 11.7879 28.9947 12.0545C29.688 12.3212 30.2613 12.6945 30.7147 13.1745C31.2213 13.7079 31.5813 14.3745 31.7947 15.1745C32.008 15.9745 32.1147 17.0545 32.1147 18.4145V29.0945C32.1147 30.2145 32.3413 30.9745 32.7947 31.3745C33.2747 31.7745 34.0613 31.9745 35.1547 31.9745V32.8145C34.7013 32.7879 34.008 32.7612 33.0747 32.7345C32.1413 32.6812 31.2347 32.6545 30.3547 32.6545C29.4747 32.6545 28.608 32.6812 27.7547 32.7345C26.928 32.7612 26.3013 32.7879 25.8747 32.8145V31.9745C26.8347 31.9745 27.5147 31.7745 27.9147 31.3745C28.3147 30.9745 28.5147 30.2145 28.5147 29.0945V17.5345C28.5147 16.7079 28.448 15.9479 28.3147 15.2545C28.1813 14.5612 27.8747 14.0012 27.3947 13.5745C26.9413 13.1479 26.2347 12.9345 25.2747 12.9345C24.1547 12.9345 23.168 13.2545 22.3147 13.8945C21.488 14.5345 20.8347 15.4145 20.3547 16.5345C19.9013 17.6279 19.6747 18.8545 19.6747 20.2145V29.0945C19.6747 30.2145 19.8747 30.9745 20.2747 31.3745C20.6747 31.7745 21.3547 31.9745 22.3147 31.9745V32.8145C21.888 32.7879 21.248 32.7612 20.3947 32.7345C19.568 32.6812 18.7147 32.6545 17.8347 32.6545C16.9547 32.6545 16.048 32.6812 15.1147 32.7345C14.1813 32.7612 13.488 32.7879 13.0347 32.8145V31.9745C14.128 31.9745 14.9013 31.7745 15.3547 31.3745C15.8347 30.9745 16.0747 30.2145 16.0747 29.0945V16.5745C16.0747 15.3745 15.8613 14.4945 15.4347 13.9345C15.008 13.3479 14.208 13.0545 13.0347 13.0545V12.2145C13.888 12.2945 14.7147 12.3345 15.5147 12.3345C16.288 12.3345 17.0213 12.2945 17.7147 12.2145C18.4347 12.1079 19.088 11.9612 19.6747 11.7745V16.4945C20.368 14.6812 21.328 13.4279 22.5547 12.7345C23.808 12.0145 25.1147 11.6545 26.4747 11.6545Z" fill="#999999"/>
<path d="M10.2 4.49455V5.29455C9.29333 5.32121 8.6 5.42788 8.12 5.61455C7.66667 5.77455 7.36 6.09455 7.2 6.57455C7.04 7.02788 6.96 7.74788 6.96 8.73455V28.5745C6.96 29.5345 7.04 30.2545 7.2 30.7345C7.36 31.2145 7.66667 31.5345 8.12 31.6945C8.6 31.8545 9.29333 31.9612 10.2 32.0145V32.8145C9.58667 32.7612 8.81333 32.7345 7.88 32.7345C6.97333 32.7079 6.05333 32.6945 5.12 32.6945C4.08 32.6945 3.10667 32.7079 2.2 32.7345C1.29333 32.7345 0.56 32.7612 0 32.8145V32.0145C0.906667 31.9612 1.58667 31.8545 2.04 31.6945C2.52 31.5345 2.84 31.2145 3 30.7345C3.16 30.2545 3.24 29.5345 3.24 28.5745V8.73455C3.24 7.74788 3.16 7.02788 3 6.57455C2.84 6.09455 2.52 5.77455 2.04 5.61455C1.58667 5.42788 0.906667 5.32121 0 5.29455V4.49455C0.56 4.52121 1.29333 4.54788 2.2 4.57455C3.10667 4.60121 4.08 4.61455 5.12 4.61455C6.05333 4.61455 6.97333 4.60121 7.88 4.57455C8.81333 4.54788 9.58667 4.52121 10.2 4.49455Z" fill="#999999"/>
</svg>
